<mxfile host="app.diagrams.net" agent="Mozilla/5.0 (Windows NT 10.0; Win64; x64; rv:143.0) Gecko/20100101 Firefox/143.0" version="28.2.5">
  <diagram name="Page-1" id="hRKNmJdthJ-2csiV7Yi2">
    <mxGraphModel grid="1" page="1" gridSize="10" guides="1" tooltips="1" connect="1" arrows="1" fold="1" pageScale="1" pageWidth="827" pageHeight="1169" math="0" shadow="0">
      <root>
        <mxCell id="0" />
        <mxCell id="1" parent="0" />
        <mxCell id="yyutJQJf3i0IXCobT3F2-20" value="V_producto/id" style="rounded=0;whiteSpace=wrap;html=1;fillColor=#ffe6cc;strokeColor=#d79b00;" vertex="1" parent="1">
          <mxGeometry x="-670" y="60" width="120" height="60" as="geometry" />
        </mxCell>
        <mxCell id="yyutJQJf3i0IXCobT3F2-21" value="&lt;div&gt;C_datos-whatsapp&lt;/div&gt;&lt;div&gt;(route.ts)&lt;/div&gt;" style="rounded=0;whiteSpace=wrap;html=1;fillColor=#e1d5e7;strokeColor=#9673a6;" vertex="1" parent="1">
          <mxGeometry x="-310" y="60" width="120" height="60" as="geometry" />
        </mxCell>
        <mxCell id="yyutJQJf3i0IXCobT3F2-22" value="orders" style="rounded=0;whiteSpace=wrap;html=1;fillColor=#d5e8d4;strokeColor=#82b366;" vertex="1" parent="1">
          <mxGeometry x="131" y="60" width="120" height="60" as="geometry" />
        </mxCell>
        <mxCell id="yyutJQJf3i0IXCobT3F2-23" value="Actor" style="shape=umlActor;verticalLabelPosition=bottom;verticalAlign=top;html=1;outlineConnect=0;" vertex="1" parent="1">
          <mxGeometry x="-780" y="60" width="30" height="60" as="geometry" />
        </mxCell>
        <mxCell id="yyutJQJf3i0IXCobT3F2-24" style="edgeStyle=orthogonalEdgeStyle;rounded=0;orthogonalLoop=1;jettySize=auto;html=1;exitX=0.5;exitY=1;exitDx=0;exitDy=0;" edge="1" parent="1" source="yyutJQJf3i0IXCobT3F2-20" target="yyutJQJf3i0IXCobT3F2-20">
          <mxGeometry relative="1" as="geometry" />
        </mxCell>
        <mxCell id="yyutJQJf3i0IXCobT3F2-25" value="" style="endArrow=none;dashed=1;html=1;dashPattern=1 3;strokeWidth=2;rounded=0;entryX=0.5;entryY=0.5;entryDx=0;entryDy=0;entryPerimeter=0;exitX=0.5;exitY=0.5;exitDx=0;exitDy=0;exitPerimeter=0;" edge="1" parent="1" target="yyutJQJf3i0IXCobT3F2-23">
          <mxGeometry width="50" height="50" relative="1" as="geometry">
            <mxPoint x="-765" y="720" as="sourcePoint" />
            <mxPoint x="-743" y="190" as="targetPoint" />
          </mxGeometry>
        </mxCell>
        <mxCell id="yyutJQJf3i0IXCobT3F2-26" value="" style="endArrow=none;dashed=1;html=1;dashPattern=1 3;strokeWidth=2;rounded=0;entryX=0.5;entryY=1;entryDx=0;entryDy=0;" edge="1" parent="1" target="yyutJQJf3i0IXCobT3F2-21">
          <mxGeometry width="50" height="50" relative="1" as="geometry">
            <mxPoint x="-250" y="720" as="sourcePoint" />
            <mxPoint x="-10" y="390" as="targetPoint" />
          </mxGeometry>
        </mxCell>
        <mxCell id="yyutJQJf3i0IXCobT3F2-27" value="" style="endArrow=none;dashed=1;html=1;dashPattern=1 3;strokeWidth=2;rounded=0;entryX=0.5;entryY=1;entryDx=0;entryDy=0;" edge="1" parent="1" target="yyutJQJf3i0IXCobT3F2-22">
          <mxGeometry width="50" height="50" relative="1" as="geometry">
            <mxPoint x="191" y="720" as="sourcePoint" />
            <mxPoint x="261" y="390" as="targetPoint" />
          </mxGeometry>
        </mxCell>
        <mxCell id="yyutJQJf3i0IXCobT3F2-29" value="" style="endArrow=classic;html=1;rounded=0;" edge="1" parent="1">
          <mxGeometry width="50" height="50" relative="1" as="geometry">
            <mxPoint x="-760" y="180" as="sourcePoint" />
            <mxPoint x="-610" y="180" as="targetPoint" />
          </mxGeometry>
        </mxCell>
        <mxCell id="yyutJQJf3i0IXCobT3F2-30" value="Clic detalle producto" style="edgeLabel;html=1;align=center;verticalAlign=middle;resizable=0;points=[];" connectable="0" vertex="1" parent="yyutJQJf3i0IXCobT3F2-29">
          <mxGeometry x="-0.1758" y="4" relative="1" as="geometry">
            <mxPoint x="8" y="-6" as="offset" />
          </mxGeometry>
        </mxCell>
        <mxCell id="yyutJQJf3i0IXCobT3F2-31" value="" style="endArrow=classic;html=1;rounded=0;" edge="1" parent="1">
          <mxGeometry width="50" height="50" relative="1" as="geometry">
            <mxPoint x="-610" y="320" as="sourcePoint" />
            <mxPoint x="-420" y="320" as="targetPoint" />
          </mxGeometry>
        </mxCell>
        <mxCell id="yyutJQJf3i0IXCobT3F2-32" value="Renderiza componente(reviews)" style="text;html=1;align=center;verticalAlign=middle;resizable=0;points=[];autosize=1;strokeColor=none;fillColor=none;" vertex="1" parent="1">
          <mxGeometry x="-620" y="290" width="200" height="30" as="geometry" />
        </mxCell>
        <mxCell id="yyutJQJf3i0IXCobT3F2-33" value="" style="endArrow=classic;html=1;rounded=0;" edge="1" parent="1">
          <mxGeometry width="50" height="50" relative="1" as="geometry">
            <mxPoint x="-250" y="220" as="sourcePoint" />
            <mxPoint x="190" y="220" as="targetPoint" />
          </mxGeometry>
        </mxCell>
        <mxCell id="yyutJQJf3i0IXCobT3F2-34" value="&lt;div&gt;SELECT * FROM reviews WHERE productId = ? AND aprovado = true, productId&lt;/div&gt;" style="text;html=1;align=center;verticalAlign=middle;resizable=0;points=[];autosize=1;strokeColor=none;fillColor=none;" vertex="1" parent="1">
          <mxGeometry x="-255" y="180" width="460" height="30" as="geometry" />
        </mxCell>
        <mxCell id="yyutJQJf3i0IXCobT3F2-35" value="" style="endArrow=classic;html=1;rounded=0;dashed=1;" edge="1" parent="1">
          <mxGeometry width="50" height="50" relative="1" as="geometry">
            <mxPoint x="190" y="260" as="sourcePoint" />
            <mxPoint x="-250" y="260" as="targetPoint" />
          </mxGeometry>
        </mxCell>
        <mxCell id="yyutJQJf3i0IXCobT3F2-36" value="id, productId, texto, imagen, fecha, aprovado, rating" style="text;html=1;align=center;verticalAlign=middle;resizable=0;points=[];autosize=1;strokeColor=none;fillColor=none;" vertex="1" parent="1">
          <mxGeometry x="-175" y="230" width="300" height="30" as="geometry" />
        </mxCell>
        <mxCell id="yyutJQJf3i0IXCobT3F2-37" value="" style="endArrow=classic;html=1;rounded=0;" edge="1" parent="1">
          <mxGeometry width="50" height="50" relative="1" as="geometry">
            <mxPoint x="-410" y="430" as="sourcePoint" />
            <mxPoint x="-760" y="430" as="targetPoint" />
          </mxGeometry>
        </mxCell>
        <mxCell id="yyutJQJf3i0IXCobT3F2-38" value="Muestra las reviews aprobadas" style="text;html=1;align=center;verticalAlign=middle;resizable=0;points=[];autosize=1;strokeColor=none;fillColor=none;" vertex="1" parent="1">
          <mxGeometry x="-605" y="400" width="190" height="30" as="geometry" />
        </mxCell>
        <mxCell id="yyutJQJf3i0IXCobT3F2-41" value="V_components/review-list" style="rounded=0;whiteSpace=wrap;html=1;fillColor=#ffe6cc;strokeColor=#d79b00;" vertex="1" parent="1">
          <mxGeometry x="-470" y="60" width="120" height="60" as="geometry" />
        </mxCell>
        <mxCell id="yyutJQJf3i0IXCobT3F2-42" value="" style="endArrow=none;dashed=1;html=1;dashPattern=1 3;strokeWidth=2;rounded=0;entryX=0.5;entryY=1;entryDx=0;entryDy=0;" edge="1" parent="1" target="yyutJQJf3i0IXCobT3F2-41">
          <mxGeometry width="50" height="50" relative="1" as="geometry">
            <mxPoint x="-410" y="720" as="sourcePoint" />
            <mxPoint x="-390" y="80" as="targetPoint" />
          </mxGeometry>
        </mxCell>
        <mxCell id="yyutJQJf3i0IXCobT3F2-43" value="GET/api/reviews/upload()" style="text;html=1;align=center;verticalAlign=middle;resizable=0;points=[];autosize=1;strokeColor=none;fillColor=none;" vertex="1" parent="1">
          <mxGeometry x="-585" y="170" width="160" height="30" as="geometry" />
        </mxCell>
        <mxCell id="yyutJQJf3i0IXCobT3F2-44" value="" style="endArrow=classic;html=1;rounded=0;" edge="1" parent="1">
          <mxGeometry width="50" height="50" relative="1" as="geometry">
            <mxPoint x="-610" y="200" as="sourcePoint" />
            <mxPoint x="-250" y="200" as="targetPoint" />
          </mxGeometry>
        </mxCell>
        <mxCell id="yyutJQJf3i0IXCobT3F2-45" value="" style="endArrow=classic;html=1;rounded=0;" edge="1" parent="1">
          <mxGeometry width="50" height="50" relative="1" as="geometry">
            <mxPoint x="-250" y="280.05" as="sourcePoint" />
            <mxPoint x="-610" y="280" as="targetPoint" />
          </mxGeometry>
        </mxCell>
        <mxCell id="yyutJQJf3i0IXCobT3F2-46" value="{ reviews }" style="text;html=1;align=center;verticalAlign=middle;resizable=0;points=[];autosize=1;strokeColor=none;fillColor=none;" vertex="1" parent="1">
          <mxGeometry x="-360" y="240" width="80" height="30" as="geometry" />
        </mxCell>
        <mxCell id="yyutJQJf3i0IXCobT3F2-49" value="" style="endArrow=none;dashed=1;html=1;dashPattern=1 3;strokeWidth=2;rounded=0;entryX=0.5;entryY=1;entryDx=0;entryDy=0;" edge="1" parent="1" target="yyutJQJf3i0IXCobT3F2-20">
          <mxGeometry width="50" height="50" relative="1" as="geometry">
            <mxPoint x="-610" y="720" as="sourcePoint" />
            <mxPoint x="-460" y="290" as="targetPoint" />
          </mxGeometry>
        </mxCell>
      </root>
    </mxGraphModel>
  </diagram>
</mxfile>
